<svg width="25" height="24" viewBox="0 0 25 24" fill="none" xmlns="http://www.w3.org/2000/svg">
<path fill-rule="evenodd" clip-rule="evenodd" d="M12.7753 24.0195C10.3972 24.0234 8.07139 23.3217 6.0922 22.0032C4.113 20.6848 2.5694 18.8089 1.65673 16.6129C0.744052 14.4168 0.503329 11.9994 0.965021 9.66654C1.42671 7.33366 2.57007 5.19018 4.2504 3.50733C5.93073 1.82448 8.0725 0.677923 10.4047 0.212734C12.7369 -0.252454 15.1546 -0.0153577 17.352 0.894024C19.5494 1.80341 21.4276 3.34419 22.7491 5.3214C24.0705 7.29861 24.7756 9.6234 24.7753 12.0015C24.7749 15.1857 23.5111 18.2395 21.2613 20.4927C19.0114 22.7459 15.9595 24.0143 12.7753 24.0195ZM12.7753 1.51951C10.7005 1.51536 8.67111 2.12686 6.944 3.27664C5.21689 4.42641 3.86974 6.06276 3.07307 7.97854C2.27639 9.89431 2.06602 12.0034 2.46857 14.0388C2.87113 16.0742 3.86852 17.9444 5.33448 19.4127C6.80045 20.8809 8.66908 21.8813 10.7038 22.287C12.7386 22.6928 14.848 22.4857 16.765 21.6921C18.6821 20.8984 20.3205 19.5539 21.473 17.8286C22.6255 16.1033 23.2402 14.0748 23.2393 12C23.2385 9.22323 22.1365 6.56012 20.1748 4.59481C18.2132 2.62951 15.5521 1.52247 12.7753 1.51651V1.51951ZM19.9288 10.3455C19.7775 10.5896 19.5657 10.7905 19.314 10.9287C19.0622 11.067 18.779 11.1378 18.4918 11.1345H15.5308C15.0839 11.1341 14.6554 10.9566 14.3391 10.6409C14.0228 10.3252 13.8445 9.89693 13.8433 9.45002V6.48451C13.8406 6.19683 13.9122 5.91331 14.0512 5.66145C14.1903 5.40959 14.3921 5.19793 14.637 5.04702C14.8819 4.8961 15.1617 4.81105 15.4492 4.8001C15.7367 4.78915 16.0221 4.85267 16.2778 4.98451C17.061 5.4074 17.7811 5.93807 18.4168 6.561C19.08 7.18241 19.6199 7.92339 20.0083 8.74501C20.1315 8.99761 20.1887 9.27727 20.1745 9.55793C20.1603 9.8386 20.0753 10.1111 19.9273 10.35L19.9288 10.3455ZM18.6253 9.38101C18.3148 8.72115 17.8781 8.12851 17.3398 7.63652C16.8113 7.11898 16.2124 6.67862 15.5608 6.3285C15.5496 6.32305 15.5373 6.32049 15.5248 6.32102C15.4951 6.32213 15.4662 6.33091 15.4408 6.34652C15.4198 6.36176 15.403 6.38222 15.3922 6.40589C15.3814 6.42956 15.377 6.45561 15.3793 6.48151V9.45002C15.3793 9.4898 15.3951 9.52795 15.4233 9.55608C15.4514 9.58421 15.4896 9.6 15.5293 9.6H18.4933C18.5191 9.6025 18.5451 9.59829 18.5687 9.58778C18.5924 9.57727 18.6129 9.56081 18.6283 9.54001C18.6432 9.51541 18.6506 9.48707 18.6498 9.45835C18.649 9.42963 18.64 9.40175 18.6238 9.37801L18.6253 9.38101ZM15.5323 13.281H18.4933C18.7813 13.2787 19.065 13.3508 19.317 13.4903C19.5689 13.6298 19.7806 13.832 19.9315 14.0773C20.0824 14.3226 20.1673 14.6027 20.1782 14.8905C20.189 15.1783 20.1253 15.464 19.9933 15.72C19.5714 16.5049 19.0418 17.2269 18.4198 17.865C17.7998 18.5288 17.0598 19.0693 16.2388 19.458C16.0155 19.5702 15.7688 19.6283 15.5188 19.6275C15.2971 19.6283 15.0773 19.585 14.8725 19.4999C14.6677 19.4149 14.4818 19.2899 14.3259 19.1322C14.1699 18.9746 14.0469 18.7874 13.964 18.5817C13.8812 18.3759 13.8401 18.1558 13.8433 17.934V14.9685C13.8433 14.5208 14.0211 14.0914 14.3375 13.7747C14.6539 13.458 15.0831 13.2799 15.5308 13.2795L15.5323 13.281ZM15.3823 17.931C15.38 17.9569 15.3844 17.983 15.3952 18.0066C15.406 18.0303 15.4228 18.0508 15.4438 18.066C15.4675 18.0806 15.4948 18.0883 15.5226 18.0883C15.5504 18.0883 15.5777 18.0806 15.6013 18.066C16.2608 17.7551 16.8526 17.3172 17.3428 16.7775C17.857 16.2485 18.2948 15.6502 18.6433 15C18.6495 14.9799 18.651 14.9587 18.6479 14.938C18.6448 14.9172 18.6371 14.8974 18.6253 14.88C18.6101 14.8589 18.5896 14.8422 18.566 14.8314C18.5423 14.8206 18.5162 14.8162 18.4903 14.8185H15.5308C15.4911 14.8185 15.4529 14.8343 15.4248 14.8625C15.3966 14.8906 15.3808 14.9287 15.3808 14.9685V17.934L15.3823 17.931ZM10.0438 19.62C9.7755 19.6193 9.51102 19.5562 9.27133 19.4355C8.48908 19.0124 7.76965 18.4823 7.13383 17.8605C6.47047 17.2387 5.93051 16.4972 5.54233 15.675C5.41772 15.419 5.36066 15.1353 5.37659 14.851C5.39251 14.5667 5.48089 14.2912 5.63332 14.0507C5.78574 13.8102 5.99715 13.6127 6.24745 13.4769C6.49774 13.3411 6.77861 13.2716 7.06333 13.275H10.0183C10.4655 13.2762 10.894 13.4547 11.2097 13.7713C11.5255 14.0879 11.7028 14.5168 11.7028 14.964V17.9295C11.706 18.2167 11.6352 18.4999 11.4973 18.7518C11.3594 19.0037 11.159 19.2159 10.9153 19.368C10.6531 19.5337 10.3495 19.622 10.0393 19.623L10.0438 19.62ZM10.1758 14.97C10.1758 14.9302 10.16 14.8921 10.1319 14.8639C10.1038 14.8358 10.0656 14.82 10.0258 14.82H7.05733C7.03158 14.817 7.00549 14.8211 6.98194 14.832C6.95838 14.8428 6.93828 14.86 6.92383 14.8815C6.91067 14.9043 6.90374 14.9302 6.90374 14.9565C6.90374 14.9828 6.91067 15.0087 6.92383 15.0315C7.23399 15.692 7.67133 16.2848 8.21083 16.776C8.7387 17.2936 9.33713 17.734 9.98833 18.084C10.0086 18.0905 10.0301 18.0922 10.0512 18.0891C10.0722 18.086 10.0923 18.0781 10.1098 18.066C10.1307 18.0509 10.1473 18.0307 10.1581 18.0073C10.1688 17.9839 10.1734 17.9582 10.1713 17.9325V14.967L10.1758 14.97ZM10.0258 11.133H7.05733C6.77981 11.1358 6.50606 11.0685 6.26144 10.9374C6.01681 10.8063 5.80921 10.6156 5.65783 10.383C5.49407 10.1227 5.39739 9.82591 5.37644 9.51912C5.3555 9.21232 5.41095 8.90513 5.53783 8.62501C5.94038 7.86398 6.4242 7.14881 6.98083 6.49202L7.07833 6.39451C7.74858 5.80869 8.49919 5.32176 9.30733 4.94851C9.56022 4.82399 9.84078 4.76635 10.1223 4.78106C10.4038 4.79576 10.6768 4.88232 10.9153 5.03251C11.1587 5.18511 11.3588 5.3977 11.4964 5.64985C11.6341 5.902 11.7046 6.18527 11.7013 6.47252V9.45002C11.6994 9.89563 11.5214 10.3224 11.2061 10.6374C10.8909 10.9523 10.4639 11.1299 10.0183 11.1315L10.0258 11.133ZM10.1758 6.48302C10.1782 6.45712 10.1737 6.43104 10.1629 6.40738C10.1522 6.38371 10.1354 6.36324 10.1143 6.348C10.0902 6.33405 10.0627 6.32672 10.0348 6.32672C10.0069 6.32672 9.9795 6.33405 9.95533 6.348C9.28969 6.65732 8.67026 7.05765 8.11483 7.5375C7.65917 8.07465 7.26147 8.65839 6.92833 9.27902C6.90986 9.3217 6.90122 9.36798 6.90303 9.41445C6.90485 9.46092 6.91709 9.50641 6.93883 9.54752C6.95234 9.56655 6.97081 9.5815 6.99224 9.59076C7.01366 9.60001 7.03722 9.60321 7.06033 9.6H10.0183C10.0581 9.6 10.0963 9.58421 10.1244 9.55608C10.1525 9.52795 10.1683 9.4898 10.1683 9.45002V6.48451L10.1758 6.48302Z" fill="#C8102E"/>
</svg>
