<svg width="24" height="24" viewBox="0 0 24 24" fill="none" xmlns="http://www.w3.org/2000/svg">
<path fill-rule="evenodd" clip-rule="evenodd" d="M20.5729 23.2547H3.05088C2.39583 23.2532 1.76809 22.992 1.30529 22.5285C0.842494 22.0649 0.582401 21.4367 0.582031 20.7817V10.2491C0.5824 9.59388 0.842448 8.96554 1.3052 8.50173C1.76796 8.03792 2.3957 7.77645 3.05088 7.77459H20.5729C21.2281 7.77645 21.8558 8.03792 22.3186 8.50173C22.7813 8.96554 23.0414 9.59388 23.0417 10.2491V20.7817C23.0414 21.4367 22.7813 22.0649 22.3185 22.5285C21.8557 22.992 21.2279 23.2532 20.5729 23.2547ZM21.6079 10.2476C21.6079 9.97289 21.499 9.70933 21.3049 9.51479C21.1109 9.32024 20.8477 9.21058 20.5729 9.20984H3.05088C2.77612 9.21058 2.51286 9.32024 2.31884 9.51479C2.12482 9.70933 2.01587 9.97289 2.01587 10.2476V20.7802C2.01587 21.0549 2.12487 21.3183 2.31893 21.5126C2.51299 21.7069 2.77625 21.8163 3.05088 21.8167H20.5729C20.8475 21.8163 21.1108 21.7069 21.3048 21.5126C21.4989 21.3183 21.6079 21.0549 21.6079 20.7802V10.2476ZM17.0676 19.7424C16.9735 19.7424 16.8802 19.7239 16.7932 19.6878C16.7063 19.6517 16.6272 19.5988 16.5607 19.5322C16.4942 19.4655 16.4415 19.3864 16.4055 19.2993C16.3696 19.2123 16.3513 19.119 16.3514 19.0248V12.0031C16.3514 11.8129 16.427 11.6306 16.5614 11.4961C16.6959 11.3617 16.8782 11.2862 17.0684 11.2862C17.2585 11.2862 17.4408 11.3617 17.5753 11.4961C17.7097 11.6306 17.7853 11.8129 17.7853 12.0031V19.0248C17.7855 19.119 17.7671 19.2123 17.7312 19.2993C17.6952 19.3864 17.6425 19.4655 17.576 19.5322C17.5095 19.5988 17.4305 19.6517 17.3435 19.6878C17.2565 19.7239 17.1618 19.7424 17.0676 19.7424ZM6.55471 19.7424C6.46054 19.7424 6.3673 19.7239 6.28031 19.6878C6.19332 19.6517 6.1143 19.5988 6.04778 19.5322C5.98125 19.4655 5.92852 19.3864 5.89261 19.2993C5.8567 19.2123 5.83832 19.119 5.8385 19.0248V12.0031C5.8385 11.8129 5.91403 11.6306 6.04848 11.4961C6.18293 11.3617 6.36528 11.2862 6.55542 11.2862C6.74556 11.2862 6.92791 11.3617 7.06236 11.4961C7.19681 11.6306 7.27234 11.8129 7.27234 12.0031V19.0248C7.27252 19.1191 7.25409 19.2125 7.21809 19.2997C7.18209 19.3868 7.12923 19.466 7.06256 19.5327C6.99589 19.5993 6.91671 19.6522 6.82956 19.6882C6.74241 19.7242 6.649 19.7426 6.55471 19.7424ZM15.3164 5.69897C15.1267 5.69712 14.9454 5.62036 14.812 5.48541C14.6787 5.35047 14.604 5.16827 14.6044 4.97854C14.6044 4.23922 14.3107 3.53017 13.788 3.00739C13.2652 2.4846 12.5561 2.19091 11.8168 2.19091C11.0775 2.19091 10.3684 2.4846 9.84566 3.00739C9.32288 3.53017 9.02917 4.23922 9.02917 4.97854C9.02917 5.16868 8.95364 5.35103 8.81919 5.48548C8.68474 5.61993 8.5024 5.69546 8.31226 5.69546C8.12212 5.69546 7.93977 5.61993 7.80532 5.48548C7.67087 5.35103 7.59534 5.16868 7.59534 4.97854C7.59534 3.85894 8.04009 2.78519 8.83177 1.99351C9.62345 1.20183 10.6972 0.75708 11.8168 0.75708C12.9364 0.75708 14.0101 1.20183 14.8018 1.99351C15.5935 2.78519 16.0383 3.85894 16.0383 4.97854C16.0385 5.07332 16.0199 5.16719 15.9837 5.25478C15.9474 5.34236 15.8943 5.42191 15.8272 5.48886C15.7601 5.55582 15.6804 5.60885 15.5928 5.64491C15.5051 5.68096 15.4112 5.69934 15.3164 5.69897Z" fill="#C8102E"/>
</svg>
