<svg width="17" height="16" viewBox="0 0 17 16" fill="none" xmlns="http://www.w3.org/2000/svg">
<g clip-path="url(#clip0_18_794)">
<path d="M8.79297 0C7.21072 0 5.664 0.469192 4.34841 1.34824C3.03282 2.22729 2.00744 3.47672 1.40194 4.93853C0.796435 6.40034 0.638008 8.00887 0.94669 9.56072C1.25537 11.1126 2.0173 12.538 3.13612 13.6569C4.25494 14.7757 5.6804 15.5376 7.23225 15.8463C8.7841 16.155 10.3926 15.9965 11.8544 15.391C13.3162 14.7855 14.5657 13.7602 15.4447 12.4446C16.3238 11.129 16.793 9.58225 16.793 8C16.7907 5.87897 15.9471 3.84547 14.4473 2.34568C12.9475 0.845886 10.914 0.00229405 8.79297 0ZM8.79297 14.6667C7.47443 14.6667 6.1855 14.2757 5.08917 13.5431C3.99284 12.8106 3.13836 11.7694 2.63378 10.5512C2.12919 9.33305 1.99717 7.99261 2.2544 6.6994C2.51164 5.40619 3.14658 4.21831 4.07893 3.28596C5.01128 2.35361 6.19916 1.71867 7.49237 1.46143C8.78558 1.2042 10.126 1.33622 11.3442 1.8408C12.5624 2.34539 13.6036 3.19987 14.3361 4.2962C15.0686 5.39253 15.4596 6.68146 15.4596 8C15.4577 9.76752 14.7547 11.4621 13.5049 12.7119C12.2551 13.9617 10.5605 14.6647 8.79297 14.6667Z" fill="#333333"/>
<path d="M8.79427 6.66663H8.1276C7.95079 6.66663 7.78122 6.73686 7.6562 6.86189C7.53118 6.98691 7.46094 7.15648 7.46094 7.33329C7.46094 7.5101 7.53118 7.67967 7.6562 7.8047C7.78122 7.92972 7.95079 7.99996 8.1276 7.99996H8.79427V12C8.79427 12.1768 8.86451 12.3463 8.98953 12.4714C9.11456 12.5964 9.28413 12.6666 9.46094 12.6666C9.63775 12.6666 9.80732 12.5964 9.93234 12.4714C10.0574 12.3463 10.1276 12.1768 10.1276 12V7.99996C10.1276 7.64634 9.98713 7.3072 9.73708 7.05715C9.48703 6.8071 9.14789 6.66663 8.79427 6.66663Z" fill="#333333"/>
<path d="M8.79297 5.33334C9.34525 5.33334 9.79297 4.88563 9.79297 4.33334C9.79297 3.78106 9.34525 3.33334 8.79297 3.33334C8.24068 3.33334 7.79297 3.78106 7.79297 4.33334C7.79297 4.88563 8.24068 5.33334 8.79297 5.33334Z" fill="#333333"/>
</g>
<defs>
<clipPath id="clip0_18_794">
<rect width="16" height="16" fill="white" transform="translate(0.792969)"/>
</clipPath>
</defs>
</svg>
