<svg width="15" height="24" viewBox="0 0 15 24" fill="none" xmlns="http://www.w3.org/2000/svg">
<path d="M14.7369 9.55144C14.6133 9.32691 14.3771 9.1875 14.121 9.1875H8.48986L10.5841 0.876145C10.6686 0.540379 10.4976 0.193598 10.1797 0.0569571C9.86386 -0.0789804 9.49238 0.0349728 9.30764 0.327473L7.79293 2.77275L0.870145 13.7338C0.733505 13.9508 0.725254 14.2247 0.848864 14.4486C0.972473 14.6731 1.20868 14.8125 1.4648 14.8125H7.09599L5.00171 23.1239C4.91724 23.4596 5.08824 23.8064 5.40615 23.9431C5.72363 24.0788 6.09277 23.9655 6.27821 23.6725L7.79293 21.2741L14.7157 10.2662C14.8523 10.0493 14.8606 9.77527 14.7369 9.55144Z" fill="#FED843"/>
<path d="M14.737 9.55144C14.6134 9.32691 14.3772 9.1875 14.121 9.1875H8.48991L10.5842 0.876145C10.6687 0.540379 10.4977 0.193598 10.1797 0.0569571C9.86391 -0.0789804 9.49242 0.0349728 9.30769 0.327473L7.79297 2.77275V21.2741L14.7158 10.2662C14.8523 10.0493 14.8606 9.77527 14.737 9.55144Z" fill="#FABE2C"/>
</svg>
