<svg width="21" height="23" viewBox="0 0 21 23" fill="none" xmlns="http://www.w3.org/2000/svg">
<path fill-rule="evenodd" clip-rule="evenodd" d="M20.281 20.1825C20.2888 20.4905 20.235 20.797 20.1225 21.0838C20.0101 21.3707 19.8413 21.6321 19.6263 21.8528C19.4112 22.0734 19.1541 22.2487 18.8702 22.3684C18.5863 22.4881 18.2813 22.5498 17.9732 22.5498C17.6651 22.5498 17.3601 22.4881 17.0762 22.3684C16.7923 22.2487 16.5353 22.0734 16.3202 21.8528C16.1051 21.6321 15.9364 21.3707 15.824 21.0838C15.7115 20.797 15.6576 20.4905 15.6655 20.1825C15.6705 19.6725 15.8464 19.1789 16.1651 18.7808C16.4839 18.3827 16.927 18.103 17.4235 17.9865V12.6795C17.4149 12.4268 17.3065 12.1879 17.122 12.015C16.9376 11.8421 16.6922 11.7493 16.4395 11.757H11.1895V18.0105C11.7082 18.1679 12.1531 18.5064 12.4431 18.9643C12.733 19.4223 12.8488 19.9692 12.7693 20.5053C12.6897 21.0415 12.4202 21.5313 12.0097 21.8853C11.5993 22.2393 11.0753 22.4341 10.5332 22.4341C9.9912 22.4341 9.4672 22.2393 9.05676 21.8853C8.64631 21.5313 8.37675 21.0415 8.29721 20.5053C8.21767 19.9692 8.33344 19.4223 8.62342 18.9643C8.9134 18.5064 9.35829 18.1679 9.87699 18.0105V11.757H3.76449V18.0105C4.23441 18.1489 4.64737 18.4347 4.94233 18.8259C5.23729 19.217 5.39863 19.6926 5.40249 20.1825C5.40249 20.7945 5.15935 21.3815 4.72656 21.8143C4.29378 22.2471 3.70679 22.4902 3.09474 22.4902C2.48269 22.4902 1.8957 22.2471 1.46292 21.8143C1.03013 21.3815 0.786987 20.7945 0.786987 20.1825C0.79109 19.6927 0.952518 19.2172 1.24745 18.8261C1.54237 18.435 1.95519 18.1491 2.42499 18.0105V11.49C2.33432 11.3879 2.28424 11.256 2.28424 11.1195C2.28424 10.9829 2.33432 10.8511 2.42499 10.749V4.47598C1.95618 4.33702 1.54446 4.05104 1.2506 3.66022C0.95674 3.2694 0.796312 2.79445 0.79299 2.30549C0.79299 1.69344 1.03613 1.10644 1.46891 0.673653C1.9017 0.240866 2.48869 -0.0022583 3.10074 -0.0022583C3.7128 -0.0022583 4.29978 0.240866 4.73257 0.673653C5.16535 1.10644 5.40849 1.69344 5.40849 2.30549C5.40478 2.79522 5.24348 3.27072 4.94847 3.66164C4.65346 4.05255 4.24042 4.33809 3.77049 4.47598V10.476H9.88299V4.47598C9.36429 4.31861 8.91941 3.98011 8.62942 3.52216C8.33944 3.0642 8.22367 2.51729 8.30321 1.98112C8.38275 1.44494 8.65231 0.955211 9.06275 0.601166C9.4732 0.24712 9.9972 0.05233 10.5392 0.05233C11.0813 0.05233 11.6053 0.24712 12.0157 0.601166C12.4262 0.955211 12.6957 1.44494 12.7753 1.98112C12.8548 2.51729 12.739 3.0642 12.4491 3.52216C12.1591 3.98011 11.7142 4.31861 11.1955 4.47598V10.476H16.4455C17.0474 10.4578 17.6321 10.6788 18.0715 11.0906C18.5109 11.5025 18.7692 12.0716 18.79 12.6735V18.033C19.2275 18.1973 19.6046 18.491 19.8709 18.875C20.1373 19.2591 20.2803 19.7151 20.281 20.1825ZM9.58599 20.1825C9.58983 20.3691 9.64868 20.5504 9.75515 20.7037C9.86162 20.8571 10.011 20.9755 10.1845 21.0443C10.358 21.1131 10.548 21.1291 10.7306 21.0903C10.9132 21.0516 11.0803 20.9598 11.2109 20.8265C11.3415 20.6931 11.4299 20.5242 11.4649 20.3409C11.5 20.1575 11.4801 19.9679 11.4078 19.7958C11.3355 19.6237 11.214 19.4768 11.0586 19.3735C10.9031 19.2702 10.7206 19.215 10.534 19.215C10.28 19.2178 10.0376 19.3212 9.85982 19.5026C9.68208 19.684 9.58359 19.9285 9.58599 20.1825ZM2.12649 20.1825C2.12649 20.3738 2.18323 20.5609 2.28955 20.72C2.39586 20.8791 2.54696 21.0031 2.72375 21.0763C2.90053 21.1496 3.09506 21.1687 3.28274 21.1314C3.47041 21.0941 3.64281 21.0019 3.77812 20.8666C3.91343 20.7313 4.00557 20.5589 4.0429 20.3712C4.08023 20.1835 4.06107 19.989 3.98784 19.8122C3.91461 19.6355 3.79061 19.4843 3.6315 19.378C3.4724 19.2717 3.28534 19.215 3.09399 19.215C2.83752 19.2154 2.59166 19.3174 2.4103 19.4988C2.22895 19.6802 2.12689 19.926 2.12649 20.1825ZM4.06149 2.30549C4.06149 2.11414 4.00475 1.92706 3.89844 1.76796C3.79213 1.60886 3.64102 1.48486 3.46424 1.41164C3.28745 1.33841 3.09291 1.31924 2.90524 1.35657C2.71756 1.3939 2.54517 1.48605 2.40986 1.62136C2.27456 1.75667 2.18241 1.92905 2.14508 2.11673C2.10775 2.30441 2.12691 2.49894 2.20014 2.67573C2.27337 2.85252 2.39737 3.00363 2.55647 3.10994C2.71558 3.21625 2.90264 3.27299 3.09399 3.27299C3.22104 3.27299 3.34685 3.24796 3.46424 3.19934C3.58162 3.15072 3.68828 3.07946 3.77812 2.98962C3.86796 2.89978 3.93922 2.79311 3.98784 2.67573C4.03646 2.55835 4.06149 2.43254 4.06149 2.30549ZM11.4805 2.30549C11.4767 2.11887 11.4178 1.93754 11.3113 1.78423C11.2049 1.63092 11.0555 1.51245 10.882 1.44368C10.7084 1.37491 10.5185 1.35888 10.3359 1.39763C10.1533 1.43638 9.9862 1.52818 9.85557 1.66151C9.72493 1.79483 9.63656 1.96376 9.60153 2.1471C9.5665 2.33044 9.58638 2.52005 9.65867 2.69214C9.73096 2.86423 9.85245 3.01114 10.0079 3.11447C10.1633 3.2178 10.3458 3.27296 10.5325 3.27299C10.6584 3.27182 10.7828 3.24585 10.8986 3.19659C11.0145 3.14734 11.1195 3.07573 11.2076 2.98589C11.2958 2.89604 11.3654 2.78973 11.4125 2.67298C11.4596 2.55624 11.4817 2.43136 11.4805 2.30549ZM18.4765 19.377C18.366 19.453 18.2356 19.4947 18.1015 19.497C18.0091 19.4973 17.9176 19.4792 17.8323 19.4436C17.7471 19.4081 17.6698 19.3558 17.605 19.29C17.4425 19.3564 17.3011 19.4658 17.1961 19.6063C17.091 19.7469 17.0261 19.9135 17.0084 20.0881C16.9907 20.2627 17.0209 20.4389 17.0957 20.5977C17.1704 20.7565 17.287 20.892 17.4329 20.9896C17.5787 21.0872 17.7484 21.1434 17.9237 21.1519C18.0991 21.1605 18.2734 21.1212 18.4281 21.0383C18.5828 20.9553 18.712 20.8319 18.8019 20.6812C18.8919 20.5304 18.9391 20.358 18.9385 20.1825C18.9365 20.02 18.893 19.8607 18.8121 19.7197C18.7313 19.5788 18.6157 19.4608 18.4765 19.377Z" fill="#C8102E"/>
</svg>
