<svg width="25" height="24" viewBox="0 0 25 24" fill="none" xmlns="http://www.w3.org/2000/svg">
<g clip-path="url(#clip0_18_751)">
<path d="M8.58927 12.9343C7.75773 12.9343 6.94487 12.6877 6.25346 12.2257C5.56206 11.7637 5.02318 11.1071 4.70497 10.3389C4.38675 9.57062 4.30349 8.72527 4.46571 7.90971C4.62794 7.09414 5.02836 6.345 5.61635 5.75701C6.20434 5.16902 6.95348 4.7686 7.76905 4.60637C8.58461 4.44415 9.42996 4.52741 10.1982 4.84563C10.9665 5.16384 11.6231 5.70272 12.0851 6.39413C12.547 7.08553 12.7936 7.89839 12.7936 8.72993C12.7924 9.84462 12.349 10.9133 11.5608 11.7015C10.7726 12.4897 9.70396 12.933 8.58927 12.9343ZM8.58927 6.39419C8.12731 6.39419 7.67571 6.53118 7.2916 6.78783C6.90749 7.04449 6.60811 7.40928 6.43132 7.83608C6.25454 8.26289 6.20828 8.73253 6.29841 9.18562C6.38853 9.63871 6.61099 10.0549 6.93765 10.3816C7.26431 10.7082 7.6805 10.9307 8.13359 11.0208C8.58668 11.1109 9.05632 11.0647 9.48313 10.8879C9.90993 10.7111 10.2747 10.4117 10.5314 10.0276C10.788 9.64349 10.925 9.1919 10.925 8.72993C10.925 8.11046 10.6789 7.51635 10.2409 7.07831C9.80286 6.64027 9.20875 6.39419 8.58927 6.39419ZM15.5965 19.4744C15.595 18.2359 15.1024 17.0485 14.2266 16.1728C13.3509 15.297 12.1635 14.8044 10.925 14.8029H6.25353C5.01502 14.8044 3.82767 15.297 2.95192 16.1728C2.07617 17.0485 1.58351 18.2359 1.58203 19.4744L1.58203 23.2116H3.45063V19.4744C3.45063 18.731 3.74593 18.0181 4.27158 17.4924C4.79722 16.9668 5.51015 16.6715 6.25353 16.6715H10.925C11.6684 16.6715 12.3813 16.9668 12.907 17.4924C13.4326 18.0181 13.7279 18.731 13.7279 19.4744V23.2116H15.5965V19.4744ZM17.9323 9.19708C17.1007 9.19708 16.2879 8.9505 15.5965 8.48852C14.9051 8.02655 14.3662 7.36992 14.048 6.60167C13.7297 5.83343 13.6465 4.98807 13.8087 4.17251C13.9709 3.35695 14.3714 2.60781 14.9593 2.01982C15.5473 1.43183 16.2965 1.0314 17.112 0.869178C17.9276 0.706953 18.773 0.790213 19.5412 1.10843C20.3094 1.42665 20.9661 1.96553 21.4281 2.65693C21.89 3.34833 22.1366 4.1612 22.1366 4.99274C22.1354 6.10742 21.692 7.17609 20.9038 7.96429C20.1156 8.75249 19.0469 9.19585 17.9323 9.19708ZM17.9323 2.65699C17.4703 2.65699 17.0187 2.79398 16.6346 3.05064C16.2505 3.30729 15.9511 3.67208 15.7743 4.09889C15.5975 4.52569 15.5513 4.99533 15.6414 5.44842C15.7315 5.90151 15.954 6.3177 16.2806 6.64436C16.6073 6.97102 17.0235 7.19348 17.4766 7.28361C17.9297 7.37373 18.3993 7.32748 18.8261 7.15069C19.2529 6.9739 19.6177 6.67452 19.8744 6.29041C20.131 5.9063 20.268 5.45471 20.268 4.99274C20.268 4.37326 20.0219 3.77915 19.5839 3.34112C19.1458 2.90308 18.5517 2.65699 17.9323 2.65699ZM24.0052 15.7372C24.0037 14.4987 23.5111 13.3113 22.6353 12.4356C21.7596 11.5598 20.5722 11.0672 19.3337 11.0657H15.5965V12.9343H19.3337C20.0771 12.9343 20.79 13.2296 21.3157 13.7552C21.8413 14.2809 22.1366 14.9938 22.1366 15.7372V19.4744H24.0052V15.7372Z" fill="#C8102E"/>
</g>
<defs>
<clipPath id="clip0_18_751">
<rect width="24" height="24" fill="white" transform="translate(0.792969)"/>
</clipPath>
</defs>
</svg>
